<?xml version="1.0" encoding="UTF-8" standalone="no"?><!DOCTYPE svg PUBLIC "-//W3C//DTD SVG 1.1//EN" "http://www.w3.org/Graphics/SVG/1.1/DTD/svg11.dtd"><svg width="100%" height="100%" viewBox="0 0 24 16" version="1.1" xmlns="http://www.w3.org/2000/svg" xmlns:xlink="http://www.w3.org/1999/xlink" xml:space="preserve" xmlns:serif="http://www.serif.com/" style="fill-rule:evenodd;clip-rule:evenodd;stroke-linejoin:round;stroke-miterlimit:1.41421;"><path d="M21.56,0.945c0.108,-0.016 -0.229,0.032 0,0m-1.064,0.579c0.041,-0.047 0.108,-0.093 0.243,-0.136c-0.083,0.045 -0.105,0.094 -0.243,0.136m-0.09,0.019c0.085,0.017 -0.107,0.007 0,0m-0.199,-0.169c0.028,-0.01 0.029,0.007 0.039,0.015c-0.028,0.009 -0.028,-0.007 -0.039,-0.015m-0.114,0.289l0.057,-0.022l0.033,0.002c0.021,0.02 -0.122,0.067 -0.09,0.02m0.012,-0.293c-0.019,0.006 -0.03,0.009 -0.039,0.012c0.036,-0.011 0.111,-0.034 0.039,-0.012m-0.102,-0.004c-0.266,0.071 0.087,-0.024 0,0m-0.167,0.163l-0.005,-0.012l-0.063,0.009c-0.029,0.024 -0.07,0.046 -0.139,0.067c-0.008,-0.028 0.062,-0.053 0.134,-0.079l0.005,0.012c0.022,-0.011 0.029,-0.023 0.019,-0.036c0.04,-0.01 0.062,-0.003 0.121,-0.031c0.017,0.025 -0.008,0.049 -0.072,0.07m-0.245,0.427c-0.012,-0.036 0.083,-0.064 0.158,-0.092c0.047,0.036 -0.105,0.056 -0.158,0.092m-0.018,-0.413c0.009,0.013 -0.039,0.023 0,0c-0.01,-0.014 0.039,-0.024 0,0m0.285,-0.122c0.011,0.058 -0.175,0.05 0,0m-0.405,0.008c0.128,-0.012 -0.089,0.056 0,0m-0.314,0.781c-0.019,-0.056 0.251,-0.132 0.279,-0.192c0.04,0.028 -0.148,0.135 -0.279,0.192m0.047,0.097c-0.163,0.074 0.111,-0.05 0,0m0.128,-0.083c0.113,-0.042 -0.099,0.07 0,0m-0.34,0.134c-0.094,0.029 0.09,-0.062 0.129,-0.083c0.094,-0.028 -0.089,0.062 -0.129,0.083m0.093,-0.019c0.111,-0.049 -0.164,0.074 0,0m-0.167,0.073c0.026,-0.013 0.028,0.004 0.039,0.01c-0.027,0.014 -0.029,-0.003 -0.039,-0.01m-0.176,0.123l-0.007,-0.012c-0.038,0.016 -0.06,0.01 -0.114,0.044c0.029,-0.037 0.015,-0.066 -0.073,-0.006c-0.018,-0.024 0.092,-0.056 0.128,-0.083c-0.029,0.037 0,0.048 0.074,0.007c0.069,-0.051 -0.057,-0.011 0.001,-0.061c0.138,-0.07 -0.038,0.118 0.092,0.043c0.004,0.02 -0.06,0.045 -0.101,0.068m-0.208,0.063c0.026,-0.013 0.029,0.004 0.04,0.009c-0.027,0.014 -0.03,-0.003 -0.04,-0.009m-0.001,-0.653c-0.17,0.076 0.115,-0.052 0,0m-0.053,0.681c-0.022,0.066 -0.106,0.006 0,0c-0.011,-0.013 0.035,-0.028 0,0m-0.037,-1.06c0.119,-0.045 -0.106,0.073 0,0m-0.077,1.105c0.114,-0.043 -0.099,0.069 0,0m-0.047,-0.021c0.035,-0.015 0.04,0.009 0.013,0.023c-0.042,0.015 -0.002,-0.011 -0.013,-0.023m-0.019,-0.477l0.083,-0.043c0.059,0.013 -0.105,0.098 -0.083,0.043m-0.212,-0.057c-0.026,-0.042 -0.05,-0.017 -0.039,-0.071c0.042,-0.022 0.153,-0.017 0.112,-0.058c0.048,-0.018 0.045,0.024 0.126,-0.035c-0.004,-0.007 0.015,-0.025 0.027,-0.015l-0.027,0.015c-0.08,0.056 -0.163,0.112 -0.199,0.164m-0.093,0.216c0.125,-0.028 -0.082,0.066 0,0m-0.074,-0.129c0.118,-0.044 -0.103,0.072 0,0m-0.373,0.175c0.094,-0.129 0.279,-0.152 0.465,-0.268c-0.17,0.121 -0.335,0.193 -0.465,0.268m0.047,-0.292l0.014,0.023l-0.057,0.029l-0.013,-0.023l0.056,-0.029Zm-0.01,-0.664c-0.27,0.111 0.089,-0.036 0,0m-0.053,-0.093c-0.272,0.111 0.089,-0.037 0,0m-0.161,0.054c0.124,-0.048 -0.109,0.074 0,0m-0.083,0.377l-0.014,-0.022l0.094,-0.035c-0.002,0.033 -0.031,0.048 -0.08,0.057m0.426,-0.177c0,0.02 -0.066,0.047 -0.109,0.072c-0.008,-0.031 0.062,-0.068 0.109,-0.072m-0.018,-0.371c-0.062,0.091 -0.39,0.181 0,0m0.014,0.297c0.01,0.027 -0.059,0.064 -0.131,0.099c-0.011,-0.028 0.058,-0.063 0.131,-0.099m-0.55,-0.092c0.025,-0.068 0.362,-0.223 0.467,-0.26l0.006,0.012c0.034,-0.02 0.085,-0.042 0.082,-0.058c0.129,-0.051 -0.069,0.094 -0.082,0.058c-0.128,0.098 -0.387,0.215 -0.473,0.248m0.758,-0.352c0.06,-0.019 -0.011,0.022 -0.053,0.042c0.007,0.019 0.014,0.037 0.05,0.021c-0.03,0.063 -0.083,-0.004 -0.184,0.081c-0.015,-0.041 0.076,-0.091 0.187,-0.144m-0.163,0.389c0.122,-0.046 -0.108,0.075 0,0m-0.007,0.703c0.126,-0.027 -0.083,0.066 0,0m0.104,-0.662c-0.011,-0.012 0.038,-0.029 0,0c0.066,0.047 -0.08,0.06 0,0m0.306,-0.191c-0.065,0.039 -0.113,0.057 -0.152,0.064c-0.041,0.033 0.039,0.055 -0.06,0.093l0.009,-0.05l-0.203,0.106c-0.014,-0.067 0.17,-0.088 0.254,-0.149c-0.015,-0.016 0.178,-0.123 0.152,-0.064m-0.087,0.715l-0.057,0.03l-0.013,-0.024l0.057,-0.03l0.013,0.024Zm-0.009,-0.618c0.004,-0.021 0.023,-0.044 0.074,-0.07c-0.005,0.021 -0.025,0.044 -0.074,0.07m0.096,0.041c0.12,-0.046 -0.107,0.073 0,0m0.177,-0.154c0.02,0.015 -0.011,0.034 -0.046,0.054l-0.035,0.004c-0.003,-0.017 0.047,-0.039 0.081,-0.058m-0.089,0.32c-0.174,0.078 0.119,-0.053 0,0m0.13,0.039c0.007,0.036 -0.053,0.079 -0.116,0.121c-0.011,-0.063 0.023,-0.06 0.116,-0.121m0.047,-0.33c-0.047,0.061 -0.097,0.078 -0.167,0.103c0.048,-0.058 0.085,-0.1 0.167,-0.103m0.449,-0.266c-0.004,0.055 -0.122,0.069 -0.184,0.143l0.017,-0.04c-0.188,0.068 -0.076,0.108 -0.241,0.172c-0.04,-0.075 0.251,-0.181 0.408,-0.275m-0.19,0.907c0.01,0.013 -0.037,0.028 0,0c-0.033,-0.05 0.107,-0.061 0,0m0.188,-0.54c-0.084,0.097 -0.16,0.042 0,0m-0.011,0.051c0.003,0.02 -0.082,0.049 -0.072,0.069l-0.034,0.002l-0.012,-0.024c0.056,-0.036 0.078,-0.03 0.118,-0.047m-0.008,0.126c-0.058,0.079 -0.143,0.085 -0.274,0.16c0.024,-0.049 0.192,-0.108 0.274,-0.16m-0.258,-0.017c0.036,0.023 -0.138,0.062 -0.101,0.083c-0.06,0.035 -0.035,-0.035 -0.06,-0.044c0.058,-0.018 0.124,-0.045 0.161,-0.039m-0.033,-0.134c0.12,-0.046 -0.105,0.073 0,0m0.05,-0.118c0.126,-0.028 -0.087,0.068 0,0m0.116,0.091c0.006,0.032 -0.061,0.068 -0.107,0.072c0,-0.021 0.066,-0.048 0.107,-0.072m-0.04,-0.009l-0.034,0.003l-0.012,-0.024c0.044,-0.028 0.054,-0.015 0.091,-0.033c-0.001,0.017 -0.052,0.038 -0.045,0.054m0.027,0.336c0.025,-0.059 0.395,-0.212 0.47,-0.262c-0.139,0.096 -0.411,0.241 -0.47,0.262m0.291,-0.123c0.028,-0.014 0.03,0.003 0.04,0.009c-0.027,0.014 -0.029,-0.003 -0.04,-0.009m-0.06,0.092c0.102,-0.03 -0.093,0.087 0,0m0.058,0.046c0.004,0.024 -0.034,0.052 -0.099,0.082c-0.046,-0.021 0.051,-0.053 0.099,-0.082m-0.128,0.569c0.066,-0.008 0.048,-0.036 0.114,-0.044c0.02,0.017 -0.14,0.101 -0.114,0.044m-0.037,-0.619c0.104,-0.043 -0.217,0.091 0,0m0.056,0.655c0.112,-0.049 -0.165,0.074 0,0m0.196,-0.498c0.116,-0.044 -0.102,0.071 0,0m-0.118,-0.03c0.014,-0.038 0.093,-0.081 0.182,-0.126l0.006,0.013c-0.028,0.035 -0.115,0.075 -0.188,0.113m0.313,-0.438c0.152,-0.061 -0.28,0.113 0,0m-0.293,0.123c0.131,-0.09 0.259,-0.174 0.419,-0.226c-0.15,0.086 -0.339,0.198 -0.525,0.298c0,-0.017 0.052,-0.038 0.044,-0.054c-0.011,-0.012 -0.056,0.017 -0.09,0.032c0.008,-0.039 0.169,-0.103 0.152,-0.05m0.019,-0.405c0.12,-0.045 -0.106,0.073 0,0m0.126,0.117c0.119,-0.045 -0.105,0.073 0,0m0.001,-0.229c0.119,-0.045 -0.107,0.075 0,0m0.074,0.007c0.022,0.018 -0.123,0.086 -0.092,0.033l0.058,-0.031l0.034,-0.002Zm-0.001,0.304c0.118,-0.044 -0.105,0.073 0,0m0.186,0.252c0.115,-0.052 -0.168,0.076 0,0m0.136,-0.232c0.019,0.038 -0.172,0.099 -0.192,0.109c0.021,-0.044 0.145,-0.074 0.192,-0.109m0.022,0.049l0.058,-0.023c0.026,0.022 -0.031,0.04 -0.076,0.058l0.018,-0.035Zm0.208,0.008c-0.01,-0.04 0.126,-0.034 0,0c-0.018,0.05 -0.161,0.045 0,0m0.08,-0.132c0.121,-0.037 -0.178,0.056 0,0m-0.335,0.979c0.097,-0.029 -0.089,0.085 0,0m0.405,-0.271c0.117,-0.027 -0.105,0.056 0,0m0.251,-0.023c0.116,-0.027 -0.104,0.056 0,0m0.28,-0.106c-0.054,-0.047 0.136,-0.035 0,0c-0.018,0.051 -0.154,0.043 0,0m0.392,-0.236c0.032,0.027 -0.136,0.042 -0.104,0.068c-0.105,0.017 0.044,-0.053 0.104,-0.068m-3.956,-0.008c-0.099,0.042 0.09,-0.076 0.131,-0.103c0.098,-0.043 -0.091,0.076 -0.131,0.103m-0.013,0.106c0.084,-0.046 -0.257,0.138 0,0m-0.149,0.26l-0.015,-0.022l0.056,-0.037l0.014,0.022l-0.055,0.037Zm-0.254,0.153c0.101,-0.044 -0.089,0.099 0,0m0.381,-0.448l0.015,0.023l-0.056,0.037l-0.014,-0.024l0.055,-0.036Zm-1.054,0.523l0.036,-0.008c-0.002,0.055 -0.064,0.024 -0.091,0.045c-0.002,-0.021 0.063,-0.056 0.103,-0.086c0.057,-0.024 -0.008,0.024 -0.048,0.049m-0.075,0.066c0.118,-0.06 -0.102,0.086 0,0m-0.172,0.162c-0.188,0.021 -0.412,0.325 -0.522,0.304c0.209,-0.172 0.416,-0.301 0.67,-0.499c0.026,0.029 -0.065,0.082 -0.044,0.111c-0.027,0.006 -0.156,0.063 -0.104,0.084m-0.572,0.293c-0.006,0.057 -0.148,0.1 0,0c-0.017,-0.021 -0.082,0.043 -0.086,-0.001c0.093,-0.084 0.239,-0.236 0.322,-0.24c0.103,-0.096 0.029,0.027 0,0l-0.261,0.209c0.044,-0.012 0.096,-0.042 0.025,0.032m-0.022,0.137c-0.052,0.036 -0.07,0.007 -0.145,0.084c0.131,-0.066 -0.025,0.053 -0.08,0.115c-0.056,-0.018 0.123,-0.106 0.037,-0.116l0.208,-0.167c0.041,0.014 -0.035,0.063 -0.02,0.084m-0.319,0.24c0.109,-0.078 -0.161,0.114 0,0m-0.113,0.125l-0.017,-0.021l0.052,-0.041l0.017,0.021l-0.052,0.041Zm0.174,-0.209c0.023,-0.016 0.021,-0.024 0.018,-0.031c0.107,-0.023 -0.213,0.194 -0.295,0.271c0.09,-0.105 0.203,-0.193 0.277,-0.24m-0.364,0.293c-0.207,0.14 0.098,-0.067 0,0m-0.226,0.198c-0.084,0.12 -0.233,0.166 0,0c0.005,-0.056 0.148,-0.1 0,0m-0.304,0.106c-0.095,0.053 0.084,-0.084 0.122,-0.115c0.095,-0.053 -0.084,0.084 -0.122,0.115m0.01,0.164c-0.065,-0.027 0.106,-0.114 0,0m0.712,-0.71c0.123,-0.054 -0.075,0.086 0,0m-0.104,0.033c0.001,-0.041 0.154,-0.141 0.148,-0.085c-0.076,0.076 -0.107,0.071 -0.148,0.085l0.017,0.02c-0.016,0.014 -0.03,0.027 -0.018,0.032c-0.063,-0.018 -0.187,0.165 -0.269,0.147c0.123,-0.087 0.135,-0.11 0.27,-0.199m0.331,-0.231c-0.036,0.022 -0.065,0.03 -0.078,0.01c0.052,-0.049 0.062,-0.025 0.078,-0.01m0.016,0.021c0.061,-0.102 0.183,-0.103 0,0m0.651,-0.583c-0.038,0.038 -0.017,0.063 -0.089,0.108c-0.029,-0.024 0.014,-0.062 0.089,-0.108m0.059,0.025c0.119,-0.06 -0.101,0.087 0,0m0.096,-0.096c-0.027,0.018 -0.031,0.001 -0.043,-0.003c0.027,-0.018 0.031,-0.001 0.043,0.003m0.12,-0.064c0.117,-0.068 -0.172,0.102 0,0m0.81,-0.603c0.034,0.044 -0.171,0.117 -0.048,0.113l-0.218,0.096c-0.054,0.041 -0.036,0.067 -0.054,0.1c-0.054,0.026 -0.017,-0.017 -0.022,-0.033c-0.108,0.08 -0.08,0.062 -0.196,0.13c0.155,-0.028 -0.166,0.079 -0.204,0.12c0.301,-0.234 0.398,-0.29 0.742,-0.526m-2.885,2.088c-0.096,0.055 -0.086,0.175 -0.148,0.135c-0.028,0.098 -0.078,-0.005 -0.082,0.059c-0.122,0.077 0.102,-0.167 0.082,-0.059c0.032,-0.034 0.008,-0.047 0.022,-0.075l0.283,-0.238c0.017,0.01 -0.116,0.128 -0.026,0.073c-0.05,0.056 -0.097,0.161 -0.131,0.105m-0.028,0.171c-0.027,0.016 -0.062,0.006 -0.057,0.035c-0.101,0.063 0.024,-0.07 0.08,-0.111c0.033,0.01 -0.035,0.058 -0.023,0.076m-0.345,0.065c-0.017,-0.025 0.1,-0.102 0.138,-0.148c0.024,0.028 -0.095,0.132 -0.138,0.148m-0.089,0.101c0.008,-0.006 0.01,-0.009 0.014,-0.012c-0.031,0.026 -0.12,0.1 -0.014,0.012m0.663,-0.775c-0.025,-0.102 0.437,-0.368 0.575,-0.53c0.008,0.023 -0.027,0.06 -0.089,0.105c0.102,-0.029 0.162,-0.105 0.315,-0.201c-0.007,-0.016 -0.011,-0.031 0.037,-0.064l0.016,0.022l-0.053,0.042c-0.435,0.411 -0.975,0.749 -1.515,1.245c0.257,-0.247 0.55,-0.528 0.714,-0.619m-0.856,1.011c0.07,-0.081 0.09,-0.055 0.14,-0.095c0.007,0.03 -0.154,0.178 -0.14,0.095m-0.064,0.079c0.023,-0.022 0.03,-0.006 0.042,-0.004c-0.023,0.022 -0.03,0.006 -0.042,0.004m0.061,-0.132c0.107,-0.078 -0.087,0.103 0,0m0.096,-0.293c0.01,0.033 -0.118,0.118 -0.164,0.172c0.017,-0.077 0.06,-0.071 0.164,-0.172m-0.45,0.162c-0.059,0.018 0.211,-0.208 0.289,-0.288c0.058,-0.017 -0.212,0.208 -0.289,0.288m0.494,-0.314c-0.024,0.022 -0.03,0.006 -0.043,0.003c0.024,-0.022 0.031,-0.006 0.043,-0.003m0.273,-0.2c0.109,-0.08 -0.086,0.103 0,0m0.121,-0.172c0.093,-0.017 -0.11,0.047 0,0m0.035,0.041c0.115,-0.073 -0.094,0.095 0,0m0.211,-0.17c0.112,-0.08 -0.164,0.116 0,0m0.117,-0.232c0.032,-0.023 0.037,0.001 0.052,0.009l0.08,-0.063c0.037,0.002 -0.125,0.118 -0.169,0.169c-0.028,-0.026 0.059,-0.088 0.037,-0.115m0.115,-0.128c0.003,0.017 -0.047,0.049 -0.036,0.064c-0.077,0.055 -0.029,-0.032 0.036,-0.064m0.202,-0.075c0.009,0.023 -0.026,0.06 -0.089,0.106c-0.053,-0.01 0.044,-0.067 0.089,-0.106m1.819,-1.389c0.014,0.004 -0.147,0.125 -0.077,0.131c-0.447,0.164 -1.396,0.937 -1.785,1.258c0.702,-0.632 1.118,-0.89 1.862,-1.389m0.122,-0.065c0.051,0.006 0.101,-0.106 0.129,-0.054c0.114,-0.056 0.437,-0.341 0.527,-0.317c-0.206,0.106 -0.419,0.295 -0.741,0.492c-0.038,-0.027 0.139,-0.098 0.085,-0.121m0.193,-0.145c0.121,-0.061 -0.105,0.089 0,0m0.135,-0.105c-0.003,0.022 -0.021,0.047 -0.071,0.079c0.004,-0.022 0.022,-0.047 0.071,-0.079m0.292,-0.049c0.122,-0.061 -0.104,0.088 0,0m0.428,-0.357c-0.057,0.065 -0.271,0.148 -0.39,0.221c0.064,-0.08 0.277,-0.166 0.39,-0.221m-1.963,1.379c0.105,-0.047 -0.092,0.101 0,0m-0.991,0.72c0.254,-0.233 0.628,-0.53 0.816,-0.669c-0.158,0.164 -0.591,0.481 -0.816,0.669m0.377,-0.182c-0.055,0.037 -0.072,0.008 -0.149,0.086c-0.029,-0.049 0.108,-0.067 0.116,-0.128c0.084,-0.056 -0.008,0.043 0.033,0.042m0.9,-0.665c-0.336,0.229 -0.545,0.406 -0.787,0.591c-0.019,-0.013 0.024,-0.063 -0.024,-0.031c-0.02,-0.034 0.189,-0.136 0.169,-0.17c0.053,-0.03 0.019,0.016 0.025,0.032c0.123,-0.085 0.166,-0.149 0.189,-0.2c0.063,-0.035 0.072,-0.024 0.052,0.013c0.124,-0.077 0.284,-0.206 0.376,-0.235m-0.386,0.392c0.113,-0.071 -0.096,0.096 0,0m-0.253,0.168c0.113,-0.07 -0.095,0.096 0,0m-0.078,0.011c0.123,-0.057 -0.075,0.085 0,0m-0.203,0.18c0.114,-0.072 -0.094,0.095 0,0m-0.237,0.19c0.114,-0.071 -0.094,0.096 0,0m-0.185,0.148c0.114,-0.072 -0.094,0.096 0,0m-0.079,0.064c0.114,-0.072 -0.094,0.095 0,0m-0.079,0.063c0.113,-0.071 -0.095,0.096 0,0m-0.036,0.115c0.114,-0.072 -0.094,0.096 0,0m-1.636,1.495c-0.011,-0.032 0.116,-0.117 0.161,-0.17c-0.033,0.076 -0.075,0.093 -0.161,0.17m-0.067,-0.602c0.091,-0.024 -0.107,0.054 0,0m0.11,0.358c0.108,-0.08 -0.086,0.102 0,0m0.088,-0.249c-0.002,0.034 -0.043,0.043 -0.074,0.069c0.002,-0.034 0.044,-0.043 0.074,-0.069m-0.599,0.358c-0.053,0.036 0.004,-0.024 0.04,-0.056c0.026,-0.029 0.005,-0.022 -0.009,-0.009c0.007,-0.062 0.109,-0.079 0.174,-0.163c0.022,0.039 -0.129,0.149 -0.205,0.228m0.168,-0.12c0.109,-0.081 -0.087,0.103 0,0m-0.201,0.04l0.05,-0.047c0.003,0.013 0.019,0 0.035,-0.014c0.028,0.01 -0.1,0.121 -0.085,0.061m-0.292,0.142c0.03,-0.051 0.046,-0.122 -0.052,-0.004c-0.014,-0.008 0.019,-0.051 -0.02,-0.019c0.073,-0.102 0.077,-0.153 0.196,-0.239l-0.069,0.125c0.009,0.056 0.063,-0.005 0.127,-0.068c0.016,0.05 -0.102,0.092 -0.182,0.205m-0.014,0.034c0.103,-0.087 -0.081,0.109 0,0m-0.042,0.006c-0.164,0.197 -0.105,0.051 0,0c0.027,-0.031 0.028,-0.001 0,0m-0.185,0.294c-0.006,-0.02 0.05,-0.07 0.083,-0.108c-0.007,0.039 -0.039,0.088 -0.083,0.108m0.008,-0.087c0.099,-0.093 -0.147,0.139 0,0m0.043,-0.242c0.024,0.008 -0.114,0.156 -0.103,0.09c0.04,-0.046 0.061,-0.041 0.103,-0.09m-0.176,0.305c0.104,-0.088 -0.081,0.109 0,0m-0.223,0.118c-0.042,0.018 0.076,-0.091 -0.025,-0.071l0.07,-0.075c-0.021,-0.027 0.077,-0.088 0.094,-0.1c0.016,0.011 -0.057,0.083 -0.004,0.044c-0.017,0.044 -0.052,0.095 0.029,0.028c-0.006,0.065 -0.11,0.102 -0.164,0.174m0.026,0.071c0.104,-0.088 -0.081,0.109 0,0m0.425,-0.491c0.092,-0.068 -0.067,0.121 0,0m-0.544,0.52c-0.073,0.057 -0.153,0.134 -0.217,0.172c-0.028,-0.016 0.071,-0.204 0.121,-0.169c0.029,-0.032 0.019,-0.046 0.06,-0.083c0.057,-0.003 0.04,0.024 0.036,0.08m-0.341,0.244c0.104,-0.088 -0.081,0.11 0,0m-0.268,0.128c-0.088,0.071 0.052,-0.077 0.084,-0.109c0.088,-0.07 -0.052,0.077 -0.084,0.109m-0.559,0.871c-0.053,0 0.03,-0.073 0.067,-0.122c0.012,0.022 -0.014,0.065 -0.067,0.122m-0.012,-0.279c0.015,0.025 -0.095,0.118 -0.057,0.131c-0.096,0.073 -0.018,-0.066 0.057,-0.131m-5.943,2.489c-0.126,-0.115 -0.062,-0.17 0,0m8.189,-4.468c0.004,0.034 -0.124,0.121 -0.061,0.132l-0.085,0.061c-0.004,-0.065 0.042,-0.111 0.146,-0.193m0.004,0.053c-0.156,0.13 0.106,-0.09 0,0m0.266,-0.269l-0.006,0.043c0.017,-0.02 0.048,-0.046 0.04,-0.056c0.1,-0.084 -0.016,0.09 -0.04,0.056c-0.073,0.028 -0.068,0.072 -0.151,0.141c0.027,-0.053 0.083,-0.153 0.157,-0.184m0.206,-0.082c0.095,-0.076 -0.2,0.16 0,0m0.108,-0.083c0.111,-0.081 -0.087,0.104 0,0m3.332,-2.059c0.1,-0.049 -0.067,0.063 -0.105,0.086c-0.101,0.048 0.067,-0.063 0.105,-0.086m0.283,-0.189c0.121,-0.061 -0.103,0.088 0,0m0.39,-0.274l0.056,-0.038c0.029,0.015 -0.026,0.048 -0.07,0.079l0.014,-0.041Zm0.113,-0.076c0.121,-0.061 -0.103,0.088 0,0m0.407,-0.248c-0.004,0.021 -0.024,0.045 -0.076,0.071c0.004,-0.021 0.024,-0.044 0.076,-0.071m0.153,-0.08c0.126,-0.05 -0.113,0.076 0,0m-1.985,1.488c0.116,-0.067 -0.096,0.094 0,0m0.14,-0.095c0.118,-0.069 -0.173,0.102 0,0m1.609,-0.924c0.099,-0.046 -0.067,0.062 -0.104,0.085c-0.099,0.048 0.067,-0.062 0.104,-0.085m1.376,-0.2c0.107,-0.045 -0.227,0.096 0,0m0.036,-0.217c-0.028,0.014 -0.029,-0.003 -0.041,-0.008c0.029,-0.016 0.03,0.002 0.041,0.008m1.617,-0.597c0.119,-0.008 -0.147,0.091 0,0m-0.348,0.694c0.014,0.018 -0.184,0.099 -0.155,0.045c0.039,-0.004 0.088,-0.015 0.155,-0.045m-0.044,-0.185c0.124,-0.038 -0.184,0.058 0,0m0.08,-0.059c-0.234,0.067 0.111,-0.032 0,0m0.062,0.063c0.125,-0.031 -0.114,0.059 0,0m0.059,-0.109c0.126,-0.031 -0.114,0.06 0,0m-0.034,0.171c-0.009,-0.039 0.13,-0.036 0,0l0.071,0.002c0.002,0.009 0.002,0.016 -0.025,0.024l-0.06,0.022c-0.002,-0.015 -0.02,-0.033 0.014,-0.048m-0.232,0.189c0.124,-0.031 -0.112,0.059 0,0m0.29,-0.052l0.064,-0.01c-0.003,0.035 -0.137,0.061 -0.064,0.01m0.332,-0.112c0.123,-0.031 -0.112,0.059 0,0m-0.354,0.221c0.122,-0.03 -0.112,0.059 0,0m0.093,-0.021c-0.029,0.011 -0.029,-0.007 -0.04,-0.014c0.029,-0.011 0.03,0.007 0.04,0.014m3.39,-0.6c-0.125,0.077 -0.731,0.219 -0.834,0.211c-0.136,0.013 -0.273,0.09 -0.295,0.083l0.016,-0.059c-0.417,0.029 -1.218,0.377 -1.486,0.41c0.02,0.031 -0.165,0.101 -0.087,0.033c-0.059,0.047 -0.144,0.092 -0.28,0.135l-0.01,-0.025c-0.023,0.006 -0.057,0.022 -0.062,0.01c0.023,-0.006 0.057,-0.022 0.062,-0.01c0.157,-0.073 0.414,-0.169 0.649,-0.304c-0.177,0.087 -0.536,0.231 -0.727,0.277c0.119,-0.065 0.328,-0.126 0.427,-0.192c-0.244,0.064 -0.958,0.407 -1.17,0.43c0.276,-0.11 0.675,-0.242 0.709,-0.326c0.074,0.002 0.236,-0.097 0.317,-0.135c-0.053,-0.034 -0.124,0.057 -0.185,0.041c-0.074,-0.013 -0.312,0.148 -0.392,0.12c0.066,-0.05 0.109,-0.025 0.142,-0.068c-0.116,0.006 -0.335,0.163 -0.477,0.166c0.138,-0.068 0.4,-0.151 0.579,-0.248c-0.151,0.032 -0.153,0.025 -0.213,-0.02c-0.177,0.07 -0.185,0.078 -0.355,0.134l0.005,0.013c0.046,0.006 -0.028,0.075 -0.061,0.095c-0.044,0.007 -0.067,-0.005 -0.081,-0.027c0.021,-0.043 0.122,-0.017 0.142,-0.068c-0.016,0.006 -0.038,0.003 -0.005,-0.013c0.263,-0.143 0.678,-0.256 0.959,-0.422c-0.134,0.098 0.166,-0.042 0.184,-0.055c-0.037,0.008 -0.084,0.007 -0.039,-0.014c0.047,-0.017 0.111,-0.049 0.123,-0.032c-0.076,0.028 -0.033,0.023 -0.021,0.036c0.1,-0.025 0.028,-0.057 0.071,-0.085c-0.275,0.099 -0.602,0.246 -0.838,0.305c0.022,0.015 -0.155,0.082 -0.149,0.057l0.149,-0.057c-0.091,0.013 0.041,-0.08 -0.079,-0.027c-0.043,0.022 0.018,0.012 0.014,0.037c-0.135,0.012 -0.116,0.115 -0.312,0.162c0.014,0.013 0.057,0.007 -0.02,0.036c0.004,-0.012 -0.008,-0.025 0.02,-0.036l0.079,-0.059c0.025,-0.045 -0.11,-0.018 -0.026,-0.062l0.449,-0.17c0.073,-0.048 -0.552,0.195 -0.195,0.03l-0.01,-0.024c-0.018,0.011 -0.103,0.075 -0.121,0.046c0.036,-0.012 0.053,-0.023 0.056,-0.036c-0.047,0.01 -0.15,0.074 -0.156,0.045c0.167,-0.088 0.366,-0.134 0.627,-0.253c-0.136,-0.021 -0.372,0.161 -0.436,0.123c0.063,-0.028 0.326,-0.113 0.237,-0.105c-0.073,0.017 -0.228,0.113 -0.222,0.056c0.233,-0.094 0.301,-0.121 0.54,-0.22c-0.002,-0.007 0.019,-0.024 0.03,-0.012c0.15,-0.084 0.206,-0.045 0.294,-0.141c0.079,0.023 0.197,-0.058 0.273,-0.104l-0.038,-0.014c-0.457,0.215 -1.04,0.423 -1.691,0.672c-0.011,-0.064 -0.045,0.001 -0.108,-0.002c-0.004,0.034 0.067,-0.004 0.078,0.014l-0.243,0.094c-0.07,0.04 -0.138,0.076 -0.155,0.052l0.145,-0.076c0.378,-0.23 -0.048,0.006 -0.22,0.069c0.676,-0.379 -0.435,0.233 -0.446,0.203c-0.002,-0.033 0.16,-0.081 0.127,-0.112l-0.065,0.019c-0.036,0.037 -0.066,0.053 -0.116,0.061c0.099,0.025 -0.072,0.139 -0.149,0.139c0.078,-0.057 0.113,-0.09 0.056,-0.105c0.037,-0.019 0.048,-0.006 0.093,-0.034c0.002,-0.018 0.114,-0.118 0.116,-0.061c0.109,-0.113 0.296,-0.159 0.383,-0.261c0.156,-0.028 0.278,-0.172 0.509,-0.232c-0.007,-0.057 -0.156,0.02 -0.213,0.009c0.188,-0.057 0.305,-0.147 0.407,-0.14c-0.003,0.06 -0.16,0.041 -0.139,0.096c0.278,-0.122 0.627,-0.213 0.729,-0.307l0.062,-0.023c0.005,-0.021 0.048,-0.041 0.048,-0.062c-0.211,0.093 -0.271,0.049 -0.525,0.201c0.048,0.016 0.116,-0.08 0.133,-0.023c-0.028,0.048 -0.198,0.085 -0.17,0.022c-0.422,0.125 -0.931,0.423 -1.238,0.545c0.169,-0.087 0.339,-0.174 0.462,-0.257c0.013,-0.069 0.227,-0.119 0.065,-0.019c0.288,-0.191 0.687,-0.278 0.992,-0.462c-0.059,0.063 0.154,-0.026 0.186,-0.071c-0.446,0.134 -0.658,0.276 -1.05,0.365c0.011,-0.001 0.02,0.002 0.019,0.013l-0.093,0.036c0.06,0.007 -0.083,0.087 -0.082,0.058c-0.002,-0.017 0.04,-0.037 0.082,-0.058l-0.005,-0.012c-0.245,0.15 -0.476,0.262 -0.612,0.335c0.014,-0.094 0.305,-0.143 0.335,-0.221c-0.245,0.11 -0.379,0.204 -0.602,0.285c0.173,-0.093 0.378,-0.188 0.46,-0.272c-0.323,0.166 -0.593,0.288 -0.818,0.383c0.318,-0.199 0.691,-0.324 0.902,-0.518c0.235,-0.069 0.472,-0.23 0.78,-0.307c-0.013,-0.02 0.028,-0.041 0.01,-0.062c-0.715,0.296 -1.219,0.556 -1.799,0.898c-0.053,0.009 -0.092,0.004 -0.169,0.042l-0.105,0.086c0.024,0.012 -0.151,0.104 -0.149,0.078c-0.054,0.027 -0.054,0.047 -0.111,0.074c-0.008,-0.017 -0.015,-0.035 -0.05,-0.019c-0.246,0.236 -0.709,0.471 -0.985,0.697l-0.027,0.018c0.018,0.037 -0.123,0.067 0,0c-0.017,-0.034 -0.165,0.124 -0.183,0.089c0.072,-0.046 0.029,-0.031 0.014,-0.041c0.185,-0.177 0.482,-0.313 0.668,-0.444c0.002,0.016 -0.05,0.043 -0.041,0.059c0.137,-0.194 0.568,-0.383 0.764,-0.55c-0.021,0.06 0.195,-0.064 0.185,-0.082c-0.174,0.077 -0.259,0.079 -0.362,0.115c-0.089,0.059 -0.482,0.3 -0.575,0.348c0.045,-0.078 0.332,-0.206 0.378,-0.284l-1.263,0.84c-0.039,0.054 0.063,0.008 -0.024,0.081c-0.059,-0.102 -0.412,0.266 -0.484,0.249c0.108,-0.099 0.325,-0.2 0.38,-0.278c-0.062,0.033 -0.071,0.023 -0.051,-0.014c-0.353,0.229 -0.756,0.56 -0.948,0.754c0.235,-0.16 0.379,-0.319 0.611,-0.473c-0.164,0.115 -0.023,0.056 -0.107,0.138c-0.127,0.077 -0.338,0.273 -0.576,0.462l0.01,-0.043c-0.089,0.05 -0.189,0.153 -0.166,0.168c-0.127,0.078 -0.144,0.121 -0.288,0.232c0.017,0.066 0.08,-0.076 0.096,-0.043c0.023,0.019 -0.089,0.08 -0.123,0.115l0,-0.052c-0.05,0.032 -0.142,0.136 -0.165,0.116c0.136,-0.124 -0.067,0.055 -0.053,-0.009l0.088,-0.054l-0.018,-0.02c-0.014,0.012 -0.036,0.016 -0.008,-0.01l0.008,0.01l0.026,-0.021c-0.02,-0.034 0.118,-0.078 0,0c0.043,-0.006 0.249,-0.17 0.262,-0.211c-0.137,0.016 -0.514,0.451 -0.619,0.415c0.039,-0.036 0.095,-0.086 0.112,-0.076l0.114,-0.074c-0.014,-0.013 -0.029,-0.026 0,-0.053c0.079,-0.025 0.217,-0.191 0.131,-0.053c0.117,-0.09 0.233,-0.181 0.193,-0.19c0.055,-0.028 0.105,-0.028 0.141,-0.094c0.033,-0.143 0.426,-0.244 0.482,-0.422c0.169,-0.081 0.362,-0.232 0.504,-0.398c0.139,0 0.247,-0.248 0.431,-0.271c-0.044,0.032 -0.112,0.067 -0.106,0.087c0.055,-0.046 0.195,-0.11 0.19,-0.143c-0.174,0.104 0.22,-0.235 0.198,-0.131c0.046,-0.012 0.047,-0.025 0.085,-0.057l-0.008,-0.011c-0.024,0.012 -0.056,0.037 -0.064,0.027c0.045,-0.022 0.137,-0.111 0.149,-0.083c0.004,0.016 -0.037,0.042 -0.077,0.067c0.125,-0.024 0.195,-0.23 0.168,-0.113c0.513,-0.399 0.764,-0.608 1.323,-0.83c-0.188,0.096 -0.254,0.118 -0.349,0.214c0.125,-0.067 0.25,-0.136 0.315,-0.135c0.08,-0.084 0.155,-0.128 0.319,-0.197c0.001,-0.072 -0.226,0.122 -0.261,0.091c0.212,-0.161 0.438,-0.192 0.532,-0.309c-0.17,0.073 -0.176,0.098 -0.279,0.131c0.038,-0.055 0.229,-0.125 0.327,-0.187c-0.868,0.371 -1.818,0.974 -2.524,1.491c-0.022,-0.062 -0.104,0.034 -0.181,0.04c0.036,-0.046 0.194,-0.133 0.263,-0.159c-0.067,0.025 -0.123,0.107 -0.041,0.059c0.009,-0.04 0.272,-0.144 0.305,-0.219c-0.102,0.031 -0.163,0.132 -0.214,0.11c0.096,-0.054 0.141,-0.098 0.155,-0.135c0.132,-0.029 0.362,-0.275 0.741,-0.493c0.07,-0.001 0.041,0.02 0.092,0.02c0.145,-0.121 0.479,-0.333 0.644,-0.391c-0.006,-0.024 -0.069,-0.004 -0.02,-0.035c0.06,-0.057 0.466,-0.208 0.384,-0.232c-0.241,0.124 -0.669,0.378 -0.893,0.453c0.326,-0.188 0.528,-0.248 0.653,-0.388c-0.033,0.017 -0.081,0.035 -0.037,0.004l0.037,-0.004c0.002,0.042 0.339,-0.139 0.251,-0.117c-0.105,0.063 -0.163,0.073 -0.203,0.061c0.064,-0.028 0.095,-0.053 0.079,-0.072c-0.106,0.024 -0.251,0.135 -0.313,0.149c0.011,0.008 -0.006,0.018 -0.024,0.028c0.024,0.016 0.07,0.014 0.033,0.059c-0.054,0.006 -0.17,0.041 -0.125,-0.01c-0.162,0.079 -0.436,0.18 -0.507,0.296c-0.059,-0.046 -0.201,0.167 -0.308,0.221c-0.091,0.036 0.029,-0.092 -0.087,-0.008c-0.034,0.069 -0.107,0.073 -0.092,0.11c-0.154,0.053 -0.305,0.246 -0.495,0.313c-0.416,0.317 -0.966,0.604 -1.187,0.873c0.105,-0.066 0.291,-0.272 0.337,-0.234c-0.045,0.044 -0.744,0.531 -0.605,0.501c-0.419,0.275 -0.798,0.625 -1.19,0.965c0.218,-0.282 0.721,-0.605 0.97,-0.858c-0.344,0.264 -0.738,0.608 -1.022,0.851c0.435,-0.483 0.95,-0.777 1.512,-1.278c0.018,-0.015 0.195,-0.125 0.117,-0.128c-0.517,0.446 -0.804,0.625 -1.148,0.922c0.023,-0.014 0.052,-0.042 0.062,-0.034c-0.023,0.015 -0.053,0.043 -0.062,0.034c-0.047,0.082 -0.036,0 -0.116,0.075c0.037,0.036 -0.168,0.168 -0.234,0.249c0.07,-0.117 -0.186,0.123 -0.183,0.153c0.038,-0.043 0.032,0.039 0.011,0.063c-0.207,0.187 -0.326,0.31 -0.431,0.385c0.056,-0.107 0.348,-0.307 0.404,-0.415c-0.145,0.023 -0.258,0.301 -0.366,0.306c0.191,-0.24 0.459,-0.409 0.545,-0.565c-0.103,0.091 -0.211,0.204 -0.358,0.316c0.073,-0.074 0.172,-0.158 0.147,-0.193c-0.083,0.081 -0.078,0.134 -0.15,0.14c0.015,0.04 -0.041,0.05 -0.038,0.109l-0.068,0.027c-0.058,0.133 -0.458,0.291 -0.558,0.504c0.04,-0.043 0.055,-0.037 0.069,-0.028c-0.061,0.072 -0.069,0.028 -0.118,0.074c0.02,0.015 -0.003,0.046 -0.056,0.089c-0.007,-0.019 0.044,-0.061 0.056,-0.089l-0.009,-0.009c-0.075,0.021 -0.251,0.256 -0.303,0.229c0.111,-0.103 0.186,-0.147 0.24,-0.244c-0.073,0.054 -0.117,0.048 -0.188,0.102c0.139,-0.111 0.153,-0.144 0.3,-0.281l-0.007,0.042c0.08,-0.039 0.089,-0.111 0.16,-0.131c0.002,0.049 -0.216,0.185 -0.171,0.217c0.294,-0.281 0.595,-0.478 0.789,-0.758c-0.207,0.193 -0.376,0.304 -0.514,0.352c0.11,-0.085 0.118,-0.091 0.157,-0.184c-0.441,0.319 -0.68,0.607 -1.064,0.926c-0.07,0.028 -0.005,-0.017 -0.006,-0.053c-0.128,0.104 -0.165,0.189 -0.278,0.256c0.225,-0.272 0.466,-0.441 0.562,-0.652l-0.05,0.047c-0.045,-0.001 -0.093,0.079 -0.057,0.055c-0.143,0.146 -0.424,0.473 -0.324,0.293c-0.257,0.257 -0.414,0.436 -0.713,0.698c0.041,-0.051 0.156,-0.138 0.098,-0.143c-1.005,1.025 -1.948,2.116 -2.924,3.343c-0.636,0.834 -1.254,1.717 -1.833,2.601c-0.05,0.075 -0.098,0.148 -0.147,0.224c-0.079,-0.107 -0.157,-0.212 -0.229,-0.313c-0.304,-0.429 -0.568,-0.894 -0.775,-1.163c-0.177,-0.227 -0.343,-0.407 -0.503,-0.632c-0.289,-0.412 -0.677,-1.002 -0.871,-1.394c-0.211,-0.226 -0.403,-0.825 -0.713,-1.189c-0.032,0.045 -0.06,0.109 -0.133,0.04c0.015,0.29 -0.437,0.14 -0.397,0.526c-0.028,-0.067 -0.039,-0.123 -0.09,-0.209c-0.065,0.002 0.106,0.185 0.05,0.194c-0.156,0.068 -0.231,0.076 -0.21,0.31c-0.032,-0.048 -0.058,-0.053 -0.08,-0.03c-0.005,-0.042 -0.057,-0.109 -0.094,-0.134c0.079,0.14 -0.046,0.035 0.024,0.175c-0.071,-0.133 -0.086,0.018 -0.176,-0.087c0.04,0.087 0.052,0.155 0.068,0.224c-0.048,-0.017 -0.103,-0.077 -0.166,-0.205c-0.029,0.069 -0.03,0.068 0,0.188l-0.131,-0.037c0.018,0.06 -0.011,0.097 0,0.188c-0.17,-0.156 -0.166,0.094 -0.337,-0.07c-0.026,0.133 -0.147,0.302 -0.271,0.232c0.031,0.105 -0.049,0.055 0.001,0.189c-0.092,-0.133 -0.122,-0.084 -0.127,-0.003c-0.043,-0.04 -0.09,-0.098 -0.125,-0.08c-0.026,0.101 0.045,0.276 -0.071,0.307c-0.042,-0.091 -0.072,-0.096 -0.111,-0.164c-0.036,0.392 0.246,0.995 0.684,1.665l0.663,0.991c0.483,0.759 0.957,1.608 1.51,2.411l0.417,0.552c0.343,0.44 0.498,0.79 1.149,1.411c0.4,0.276 0.867,0.671 1.866,0.282c1.031,-0.619 0.615,-0.511 0.864,-0.695c0.231,-0.274 0.379,-0.489 0.513,-0.693c1.767,-2.777 3.899,-5.182 5.932,-7.228c0.565,-0.515 1.226,-1.291 1.877,-1.788c0.401,-0.313 0.841,-0.726 1.223,-0.99c0.061,-0.035 0.107,-0.045 0.183,-0.105c0.041,-0.091 0.243,-0.143 0.335,-0.255c0.077,-0.102 0.427,-0.239 0.472,-0.379c0.158,-0.067 0.276,-0.155 0.416,-0.252c-0.027,0.015 -0.065,0.031 -0.012,-0.006c0.026,-0.009 0.034,-0.011 0.033,-0.008c0.06,-0.042 0.124,-0.083 0.199,-0.128l-0.014,0.037c0.061,-0.049 0.316,-0.167 0.166,-0.131c0.313,-0.177 0.634,-0.402 1.019,-0.567c-0.074,-0.047 0.181,-0.122 0.047,-0.04c0.119,-0.015 0.097,-0.097 0.162,-0.075l0.05,-0.034c-0.006,-0.016 0.07,-0.045 0.083,-0.031l-0.083,0.031c0.024,0.024 0.147,-0.054 0.177,-0.037c-0.01,-0.017 -0.019,-0.034 0.012,-0.048c0.023,0.052 0.177,-0.116 0.149,-0.027c0.098,-0.027 0.015,-0.064 0.124,-0.091l-0.013,0.049c0.107,-0.018 0,-0.049 0.069,-0.07c0.065,0.001 0.05,-0.03 0.116,-0.029c0.166,-0.108 0.421,-0.176 0.473,-0.268c0.039,0.004 0.017,0.016 0.013,0.038l0.389,-0.15c-0.095,0.008 -0.198,0.069 -0.285,0.086c0.008,-0.01 -0.102,-0.03 0.01,-0.066c-0.028,-0.003 -0.188,0.042 -0.196,0.075c0.046,-0.022 0.056,-0.01 0.065,0.004c-0.086,0.011 -0.185,0.037 -0.317,0.093c0.01,0.013 0.008,0.038 0.042,0.027c-0.003,-0.007 0.018,-0.023 0.028,-0.01l-0.028,0.01c-0.012,0.07 -0.214,0.061 -0.288,0.081c0.068,-0.037 0.123,-0.063 0.2,-0.062c-0.003,-0.016 -0.003,-0.032 0.046,-0.046c-0.021,-0.005 -0.042,-0.01 -0.009,-0.026l0.364,-0.139c-0.041,-0.035 -0.24,0.059 -0.078,-0.042c-0.114,0.034 -0.147,0.074 -0.184,0.113c-0.052,-0.079 -0.209,0.091 -0.351,0.091c-0.038,0.12 -0.216,0.131 -0.407,0.197c-0.019,-0.033 0.177,-0.054 0.159,-0.089c-0.037,0.011 -0.039,-0.014 -0.011,-0.024l-0.061,0.009c0.026,0.034 -0.081,0.06 -0.126,0.09c0.005,-0.01 0.051,-0.074 -0.02,-0.049c-0.16,0.071 -0.114,0.08 -0.199,0.146c-0.053,0.018 -0.036,-0.035 -0.078,-0.028c-0.122,0.057 -0.119,0.037 -0.124,0.094c-0.106,0.059 -0.121,0.06 -0.065,0.004c-0.121,0.057 -0.107,0.087 -0.118,0.108c-0.139,0.058 -0.194,0.071 -0.265,0.079c0.223,-0.154 0.605,-0.328 0.753,-0.396l-0.13,0.006c0.124,-0.04 0.351,-0.154 0.445,-0.197c0.154,-0.088 0.355,-0.127 0.53,-0.231c-0.012,-0.034 0.124,-0.081 0.167,-0.078c-0.01,-0.013 -0.002,-0.025 0.019,-0.037c0.094,-0.068 0.221,-0.107 0.341,-0.131c0.039,-0.105 0.211,-0.111 0.312,-0.128c0.242,-0.039 0.461,-0.132 0.733,-0.212c0.457,-0.119 0.958,-0.285 1.402,-0.297c-0.117,-0.059 -0.378,0.017 -0.524,0.007" style="fill:#961414;fill-rule:nonzero;"/></svg>