<?xml version="1.0" encoding="UTF-8" standalone="no"?>
<!DOCTYPE svg PUBLIC "-//W3C//DTD SVG 1.1//EN" "http://www.w3.org/Graphics/SVG/1.1/DTD/svg11.dtd">
<svg width="100%" height="100%" viewBox="0 0 412 353" version="1.1" xmlns="http://www.w3.org/2000/svg" xmlns:xlink="http://www.w3.org/1999/xlink" xml:space="preserve" style="fill-rule:evenodd;clip-rule:evenodd;stroke-linecap:round;stroke-linejoin:round;stroke-miterlimit:1.41421;">
    <g>
        <ellipse cx="203.349" cy="255.984" rx="9.689" ry="3.876" style="fill:black;"/>
        <path d="M277.415,225.819C282.062,220.265 283.589,208.936 280.675,196.774C276.869,180.903 266.962,169.671 258.552,171.686C258.331,171.741 258.137,171.834 257.924,171.903C253.475,154.986 224.305,146.827 196.35,144.881C162.119,142.486 133.531,165.233 132.388,166.148C130.892,167.357 130.508,169.473 131.481,171.132C131.717,171.531 133.225,174.047 135.822,177.647C131.864,182.186 128.477,188.906 126.59,196.774C123.721,208.727 125.136,219.901 129.605,225.552C123.787,230.199 120.024,237.551 120.024,245.814C120.024,257.321 127.33,267.065 137.322,270.197C149.964,294.385 175.327,310.005 203.473,310.005C231.646,310.005 257.048,294.343 269.675,270.1C279.512,266.871 286.682,257.209 286.682,245.81C286.678,237.702 283.047,230.482 277.415,225.819L277.415,225.819ZM215.093,292.153C212.55,290.548 208.229,289.486 203.349,289.486C198.466,289.486 194.148,290.541 191.602,292.153L191.602,281.254L215.101,281.254L215.093,292.153L215.093,292.153ZM262.482,255.74C261.358,255.74 260.304,255.48 259.319,255.031C254.393,269.321 244.014,281.111 230.607,287.975L230.607,273.495C230.607,269.216 227.135,265.744 222.856,265.744L183.846,265.744C179.567,265.744 176.095,269.216 176.095,273.495L176.095,287.839C162.785,280.944 152.476,269.185 147.596,254.957C146.554,255.453 145.41,255.736 144.209,255.736C139.383,255.736 135.515,251.291 135.515,245.803C135.515,240.315 139.383,235.873 144.209,235.873C144.298,235.873 144.383,235.9 144.476,235.904C144.499,233.005 144.755,229.462 145.197,225.788C148.48,222.986 151.522,218.688 153.887,213.397C162.646,216.025 172.169,218.006 182.23,219.118C209.981,222.168 235.293,218.044 251.719,209.235C254.133,216.231 257.73,221.943 261.703,225.482C262.16,229.261 262.431,232.912 262.447,235.888C262.455,235.888 262.462,235.885 262.47,235.885C267.296,235.885 271.164,240.326 271.164,245.818C271.164,251.31 267.307,255.74 262.482,255.74L262.482,255.74Z" style="fill:black;fill-rule:nonzero;"/>
        <circle cx="177.025" cy="239.663" r="8.72" style="fill:black;"/>
        <circle cx="229.673" cy="239.663" r="8.72" style="fill:black;"/>
    </g>
    <g transform="matrix(1,0,0,1.04084,0,-6.98802)">
        <g id="Layer1">
            <path d="M46.553,171.121L203.595,54.215L359.026,169.272" style="fill:none;stroke-width:32.33px;stroke:black;"/>
        </g>
    </g>
</svg>
