<?xml version="1.0" encoding="UTF-8" standalone="no"?><!DOCTYPE svg PUBLIC "-//W3C//DTD SVG 1.1//EN" "http://www.w3.org/Graphics/SVG/1.1/DTD/svg11.dtd"><svg width="100%" height="100%" viewBox="0 0 242 167" version="1.1" xmlns="http://www.w3.org/2000/svg" xmlns:xlink="http://www.w3.org/1999/xlink" xml:space="preserve" xmlns:serif="http://www.serif.com/" style="fill-rule:evenodd;clip-rule:evenodd;stroke-linejoin:round;stroke-miterlimit:1.41421;"><path d="M130.8,17.701c-38.217,-4.975 -77.737,21.833 -102.004,48.925c-20.588,22.992 -35.284,59.162 -4.554,80.337c38.466,26.504 100.266,13.459 140.004,-2.245c21.079,-8.342 40.821,-20.521 53.425,-39.767c11.762,-17.963 13.846,-42.658 4.704,-62.15c-18.454,-39.342 -62.792,-48.238 -101.454,-38.321c-37.492,9.612 -72.829,33.775 -97.471,63.308c-16.708,20.009 -33.008,50.946 -14.487,74.884c10.337,13.354 29.183,18.229 44.924,20.916c21.988,3.75 44.646,2.459 66.521,-1.408c57.842,-10.225 124.975,-49.446 119.717,-116.479c-0.308,-3.971 -6.533,-4.004 -6.225,0c4.192,53.396 -40.65,87.579 -86.533,103.162c-23.625,8.025 -48.825,11.446 -73.729,10.525c-19.68,-0.733 -43.434,-4.225 -58.096,-18.666c-26.313,-25.921 9.241,-67.475 28.162,-85.305c29.259,-27.554 70.567,-50.095 111.688,-48.912c22.966,0.662 44.979,12.437 57.546,31.733c15.241,23.392 9.512,53.084 -7.992,73.309c-15.888,18.341 -41.596,28.025 -64.204,34.625c-25.421,7.412 -53.255,10.995 -79.613,7.216c-18.108,-2.596 -41.275,-10.112 -47.641,-29.254c-5.355,-16.096 4.866,-33.742 14.07,-46.225c21.942,-29.783 64.625,-59.004 103.242,-53.983c3.971,0.512 3.921,-5.721 0,-6.225Z" style="fill:#a02e2a;fill-rule:nonzero;stroke:#a02e2a;stroke-width:1.5px;"/></svg>