<?xml version="1.0" encoding="UTF-8" standalone="no"?><!DOCTYPE svg PUBLIC "-//W3C//DTD SVG 1.1//EN" "http://www.w3.org/Graphics/SVG/1.1/DTD/svg11.dtd"><svg width="100%" height="100%" viewBox="0 0 67 47" version="1.1" xmlns="http://www.w3.org/2000/svg" xmlns:xlink="http://www.w3.org/1999/xlink" xml:space="preserve" xmlns:serif="http://www.serif.com/" style="fill-rule:evenodd;clip-rule:evenodd;stroke-linejoin:round;stroke-miterlimit:1.41421;"><path d="M33.617,6.515c-20.149,-3.042 -32.733,28.047 -12.208,36.521c14.477,5.976 43.786,-0.07 43.561,-19.739c-0.117,-10.291 -8.477,-18.434 -17.682,-21.525c-10.019,-3.364 -21.619,-1.684 -30.966,2.888c-8.914,4.362 -17.86,13.897 -16.098,24.541c1.703,10.282 13.58,15.613 22.726,16.896c5.573,0.782 10.874,-0.013 16.188,-1.703c5.928,-1.884 11.807,-4.257 16.918,-7.855c4.559,-3.209 8.254,-7.934 8.795,-13.647c0.601,-6.365 -2.508,-11.701 -7.346,-15.623c-9.082,-7.368 -20.763,-7.106 -31.156,-2.935c-9.029,3.623 -18.002,10.908 -19.207,21.131c-1.209,10.254 6.906,19.357 16.826,20.518c10.965,1.283 22.451,-3.438 31.172,-9.801c6.846,-4.995 14.324,-14.006 11.062,-23.043c-2.878,-7.985 -12.66,-11.29 -20.267,-12.311c-13.654,-1.832 -28.32,3.991 -32.356,18.159c-0.263,0.929 1.178,1.321 1.442,0.398c3.717,-13.055 16.592,-18.155 29.111,-17.248c8.465,0.612 20.715,4.8 21.363,14.86c0.354,5.476 -3.386,10.76 -7.05,14.439c-3.987,4.007 -9.032,6.98 -14.153,9.294c-10.228,4.622 -25.299,7.146 -32.621,-3.619c-7.662,-11.26 0.192,-23.054 10.321,-29c11.003,-6.456 24.783,-7.633 35.093,0.731c6.285,5.095 8.199,13.246 4.08,20.349c-3.459,5.967 -10.695,9.357 -16.836,11.791c-5.691,2.254 -11.494,4.049 -17.666,3.928c-6.019,-0.117 -12.07,-1.957 -17.113,-5.238c-4.693,-3.054 -8.117,-7.884 -8.092,-13.615c0.026,-6.364 4.655,-12.234 9.325,-16.106c8.83,-7.322 21.902,-9.885 32.991,-7.578c10.817,2.249 21.483,12.053 19.477,24.008c-1.736,10.353 -13.783,15.261 -22.873,16.818c-10.49,1.799 -25.213,-0.271 -27.859,-12.621c-2.545,-11.861 8.674,-24.439 20.701,-22.621c0.941,0.142 1.348,-1.297 0.397,-1.442Z" style="fill:#a10f13;fill-rule:nonzero;stroke:#a02e2a;stroke-width:1.5px;"/></svg>