<?xml version="1.0" encoding="UTF-8" standalone="no"?><!DOCTYPE svg PUBLIC "-//W3C//DTD SVG 1.1//EN" "http://www.w3.org/Graphics/SVG/1.1/DTD/svg11.dtd"><svg width="100%" height="100%" viewBox="0 0 37 37" version="1.1" xmlns="http://www.w3.org/2000/svg" xmlns:xlink="http://www.w3.org/1999/xlink" xml:space="preserve" xmlns:serif="http://www.serif.com/" style="fill-rule:evenodd;clip-rule:evenodd;stroke-linejoin:round;stroke-miterlimit:1.41421;"><path d="M18.261,9.974c-5.093,5.425 -13.393,15.99 -6.873,23.361c4.658,5.267 13.16,2.939 17.777,-0.975c5.889,-4.992 9.389,-16.074 5.046,-23.006c-3.739,-5.968 -12.26,-5.679 -18.187,-4.031c-6.627,1.844 -13.777,6.461 -15.625,13.475c-2.113,8.019 4.477,15.017 12.381,14.399c8.54,-0.669 17.762,-7.608 20.866,-15.571c3.18,-8.162 -1.627,-16.115 -10.192,-17.426c-11.251,-1.721 -27.115,7.879 -20.042,20.523c0.483,0.863 1.808,0.089 1.325,-0.775c-5.626,-10.057 5.281,-17.508 14.329,-18.344c4.553,-0.42 9.478,0.833 12.248,4.7c3.053,4.263 1.945,9.534 -0.613,13.693c-4.359,7.084 -17.589,16.292 -25.621,9.586c-3.402,-2.841 -4.214,-7.953 -2.7,-11.936c1.4,-3.684 4.783,-6.429 8.086,-8.343c5.394,-3.123 13.12,-4.997 19,-2.147c7.545,3.655 5.328,14.429 1.915,20.191c-3.331,5.624 -11.191,9.784 -17.388,6.151c-8.92,-5.229 1.139,-17.951 5.353,-22.441c0.676,-0.719 -0.407,-1.807 -1.085,-1.084Z" style="fill:#c60e11;fill-rule:nonzero;stroke:#a02e2a;stroke-width:1.5px;"/></svg>