<?xml version="1.0" encoding="UTF-8" standalone="no"?><!DOCTYPE svg PUBLIC "-//W3C//DTD SVG 1.1//EN" "http://www.w3.org/Graphics/SVG/1.1/DTD/svg11.dtd"><svg width="100%" height="100%" viewBox="0 0 60 40" version="1.1" xmlns="http://www.w3.org/2000/svg" xmlns:xlink="http://www.w3.org/1999/xlink" xml:space="preserve" xmlns:serif="http://www.serif.com/" style="fill-rule:evenodd;clip-rule:evenodd;stroke-linejoin:round;stroke-miterlimit:1.41421;"><path d="M27.523,12.525c-5.931,2.483 -21.482,10.496 -14.503,18.977c6.908,8.396 21.42,3.285 29.738,0.016c4.683,-1.84 8.978,-4.01 11.939,-8.229c3.438,-4.896 2.252,-10.868 -1.382,-15.217c-8.135,-9.736 -22.934,-6.822 -33.008,-2.402c-9.069,3.975 -22.383,13.088 -20.034,24.725c1.016,5.033 6.094,7.633 10.657,8.629c5.771,1.257 12.002,0.203 17.633,-1.245c11.357,-2.916 25.109,-9.406 29.998,-20.817c1.841,-4.298 1.535,-8.964 -1.858,-12.344c-3.834,-3.819 -10.322,-4.682 -15.463,-4.614c-7.58,0.1 -15.082,3.01 -21.674,6.545c-6.796,3.645 -13.199,8.68 -17.585,15.082c-0.545,0.797 0.75,1.543 1.291,0.754c7.921,-11.566 23.283,-19.982 37.22,-20.859c5.869,-0.37 14.108,0.94 17.055,6.743c3.117,6.137 -2.994,13.399 -7.287,17.126c-5.403,4.691 -12.215,7.833 -18.961,10.031c-6.346,2.068 -13.328,3.351 -19.971,2.156c-6.978,-1.254 -11.355,-6.515 -9.14,-13.566c2.048,-6.518 8.255,-11.17 13.871,-14.494c8.685,-5.141 20.955,-9.053 30.681,-4.595c5.42,2.485 9.643,8.142 8.217,14.24c-1.197,5.112 -5.945,7.948 -10.35,9.959c-4.283,1.956 -8.843,3.37 -13.439,4.361c-4.32,0.931 -9.627,1.711 -13.797,-0.21c-2.308,-1.064 -4.342,-3.525 -4.48,-6.098c-0.127,-2.359 1.728,-4.464 3.277,-6.003c3.223,-3.201 7.596,-5.471 11.752,-7.211c0.873,-0.365 0.49,-1.813 -0.397,-1.44Z" style="fill:#a10f13;fill-rule:nonzero;"/></svg>